<?xml version="1.0" encoding="UTF-8" standalone="no"?>
<!-- Created with Inkscape (http://www.inkscape.org/) -->

<svg
   width="162.1731mm"
   height="160.46474mm"
   viewBox="0 0 162.1731 160.46474"
   version="1.1"
   id="svg78367"
   xml:space="preserve"
   sodipodi:docname="dice.svg"
   inkscape:version="1.2.2 (b0a84865, 2022-12-01)"
   xmlns:inkscape="http://www.inkscape.org/namespaces/inkscape"
   xmlns:sodipodi="http://sodipodi.sourceforge.net/DTD/sodipodi-0.dtd"
   xmlns:xlink="http://www.w3.org/1999/xlink"
   xmlns="http://www.w3.org/2000/svg"
   xmlns:svg="http://www.w3.org/2000/svg"
   xmlns:rdf="http://www.w3.org/1999/02/22-rdf-syntax-ns#"
   xmlns:cc="http://creativecommons.org/ns#"><sodipodi:namedview
     id="namedview78369"
     pagecolor="#ffffff"
     bordercolor="#000000"
     borderopacity="0.25"
     inkscape:showpageshadow="2"
     inkscape:pageopacity="0.0"
     inkscape:pagecheckerboard="0"
     inkscape:deskcolor="#d1d1d1"
     inkscape:document-units="mm"
     showgrid="false"
     inkscape:zoom="0.67528698"
     inkscape:cx="159.19158"
     inkscape:cy="294.68953"
     inkscape:window-width="1512"
     inkscape:window-height="854"
     inkscape:window-x="0"
     inkscape:window-y="38"
     inkscape:window-maximized="0"
     inkscape:current-layer="layer4"
     showguides="false" /><defs
     id="defs78364"><linearGradient
       inkscape:collect="always"
       id="linearGradient78952"><stop
         style="stop-color:#efefef;stop-opacity:1;"
         offset="0"
         id="stop78948" /><stop
         style="stop-color:#e1e1e1;stop-opacity:1;"
         offset="0.67880762"
         id="stop78956" /><stop
         style="stop-color:#8a8a8a;stop-opacity:1;"
         offset="1"
         id="stop78950" /></linearGradient><radialGradient
       inkscape:collect="always"
       xlink:href="#linearGradient78952"
       id="radialGradient78954"
       cx="81.476303"
       cy="68.473297"
       fx="81.476303"
       fy="68.473297"
       r="81.336609"
       gradientTransform="matrix(0.29680136,1.571839,-1.5110761,0.28532788,148.49742,-78.021597)"
       gradientUnits="userSpaceOnUse" /></defs><g
     inkscape:groupmode="layer"
     id="layer4"
     inkscape:label="Layer 1"
     style="display:inline"
     transform="translate(-23.623944,-23.169754)"><path
       style="display:inline;fill:url(#radialGradient78954);fill-opacity:1;stroke:none;stroke-width:0.499999;stroke-linejoin:round;stroke-opacity:1"
       d="M 27.188964,54.671788 C 30.816847,47.28747 36.035093,40.737718 44.88869,36.64099 55.692477,31.641873 93.048604,23.307421 114.80796,23.170558 c 23.31297,-0.146636 53.78242,19.80354 61.71973,28.893813 15.39591,17.632294 8.9035,89.989419 -0.002,101.127179 -14.47017,18.09663 -65.79129,30.7368 -85.881493,30.43774 C 76.590308,183.42009 40.806881,160.01612 30.435407,141.69373 22.756158,128.12746 21.4218,66.410473 27.188964,54.671788 Z"
       id="path78554"
       sodipodi:nodetypes="ssssssss"
       inkscape:label="corners" /><path
       style="display:inline;fill:#e3e3e3;fill-opacity:1;stroke:none;stroke-width:0.499999;stroke-linejoin:round;stroke-opacity:1"
       d="M 84.955601,70.313956 C 101.38205,74.246125 171.35983,56.978938 171.78397,50.394504 172.22768,43.506332 136.54755,24.81412 119.00594,23.494735 99.020638,21.991548 38.266804,33.50467 38.306635,42.903432 c 0.04028,9.505377 32.840988,24.105166 46.648966,27.410524 z"
       id="path78919"
       sodipodi:nodetypes="sssss"
       inkscape:label="top" /><path
       style="display:inline;fill:#d1d1d1;fill-opacity:1;stroke:none;stroke-width:0.499999;stroke-linejoin:round;stroke-opacity:1"
       d="m 29.113041,52.097022 c 3.863327,-3.76438 39.965157,14.549555 48.010984,28.942791 10.91957,19.534097 10.17786,89.035647 3.575284,95.340957 C 73.44236,183.31099 36.297353,154.63758 30.134552,140.62791 22.76338,123.87129 20.936892,60.063764 29.113041,52.097022 Z"
       id="path78921"
       sodipodi:nodetypes="sssss"
       inkscape:label="left" /><path
       style="display:inline;fill:#b2b2b2;fill-opacity:1;stroke:none;stroke-width:0.499999;stroke-linejoin:round;stroke-opacity:1"
       d="m 94.659951,91.765672 c 3.62825,-6.735303 9.547229,-12.43969 17.913829,-16.369067 16.66052,-7.824621 55.50061,-18.579306 65.33925,-11.211711 12.30748,9.216362 8.0844,77.227666 -2.04302,89.892896 -13.0547,16.32606 -69.64123,30.53701 -78.486034,24.34599 -12.817899,-8.97203 -10.215021,-72.7522 -2.724025,-86.658108 z"
       id="path78923"
       sodipodi:nodetypes="ssssss"
       inkscape:label="right" /><g
       aria-label="рез"
       transform="matrix(9.2294842,-10.5829,7.2471789,6.6699978,-169.93996,-3.556536)"
       id="text79079"
       style="font-size:5.64444px;text-align:center;text-anchor:middle;white-space:pre;inline-size:17.5241;fill:#ed0000;stroke-width:0.499999;stroke-linejoin:round"
       inkscape:label="eka"><path
         d="M 9.7518994,24.756897 10.443674,23.927318 Q 9.9751415,23.591077 9.8400938,23.381616 9.7078023,23.169398 9.7078023,22.92962 q 0,-0.2949 0.1929252,-0.531923 0.1956815,-0.239778 0.4492405,-0.239778 0.316948,0 0.595312,0.344509 0.278363,0.344509 0.278363,0.702799 0,0.327973 -0.24529,0.741384 -0.245291,0.413411 -0.837847,1.055576 l 0.793749,0.994943 q 0.333485,0.418924 0.333485,0.620117 0,0.187413 -0.24529,0.187413 l -0.584288,-0.476801 q 0.176389,-0.01102 0.264583,-0.06063 0.08819,-0.04961 0.08819,-0.135048 0,-0.06339 -0.107486,-0.223242 z M 10.5236,23.803295 q 0.418924,-0.564995 0.418924,-0.892968 0,-0.184657 -0.09646,-0.305924 -0.09646,-0.121267 -0.237022,-0.121267 -0.198438,0 -0.347266,0.209461 -0.148828,0.209462 -0.148828,0.446484 0,0.37207 0.410655,0.664214 z"
         style="stroke-width:0.5"
         id="path81379"
         inkscape:label="path" /></g><g
       aria-label="рей"
       transform="matrix(1.2100667,-0.41542631,0,0.90029749,-3.2296093,-7.2606126)"
       id="text80593"
       style="font-size:101.452px;text-align:center;text-anchor:middle;fill:#171717;fill-opacity:1;stroke-width:8.98685;stroke-linejoin:round"
       inkscape:label="tri"><path
         d="m 97.652558,163.73864 h 16.495862 q 7.13334,0 12.38427,5.15186 5.25094,5.15186 5.25094,11.44307 0,5.64723 -5.35001,9.6102 8.47085,5.05278 8.47085,14.51437 0,5.39955 -2.92269,9.2139 -2.87316,3.76482 -8.61946,5.94446 l 11.54215,22.53938 -2.22917,1.04028 -11.78984,-22.78707 q -2.2787,0.3963 -4.26019,0.3963 -5.15186,0 -8.12408,-2.37778 -2.92269,-2.42732 -2.92269,-6.19214 0,-2.32825 1.78333,-4.26019 1.83288,-1.98149 4.70603,-1.98149 4.0125,0 7.38103,5.99399 h 1.68426 q 4.60695,0 7.82686,-2.32824 3.21991,-2.37778 3.21991,-6.39029 0,-4.4088 -3.91343,-7.57918 -3.91343,-3.17037 -10.65048,-3.17037 h -13.07779 l -1.93195,-6.98473 h 10.74955 q 7.38103,0 11.14585,-2.92269 3.76482,-2.92269 3.76482,-6.29122 0,-2.08056 -2.72454,-3.81435 -2.675,-1.78334 -7.38103,-1.78334 H 100.7734 Z"
         style="fill:#171717;fill-opacity:1;stroke-width:8.98686"
         id="path81385"
         inkscape:label="path" /></g><g
       aria-label="реи"
       transform="matrix(0.80055358,0.11570768,0,1.1743746,0.90491882,7.217391)"
       id="text81373"
       style="font-size:77.5563px;text-align:center;text-anchor:middle;fill:#0c0c0c;stroke-width:6.87013;stroke-linejoin:round"
       inkscape:label="dvi"><path
         d="m 48.476879,67.110331 -3.446105,-6.059086 q 7.157295,-2.082811 12.572603,-2.082811 9.353714,0 14.390329,4.317099 5.036615,4.317098 5.036615,11.360786 0,5.680392 -3.446105,10.224707 -3.446105,4.506445 -9.429453,6.816471 9.505191,17.116913 15.261323,25.637503 l -1.401164,1.09821 Q 72.334529,110.0541 62.147691,92.369144 h -2.764458 q -3.294627,0 -5.83187,-2.08281 -2.499372,-2.082811 -2.499372,-5.036615 0,-2.15855 1.287555,-3.521844 1.325425,-1.363294 2.878066,-1.363294 1.476902,0 2.840196,1.06034 1.401164,1.06034 3.597583,4.998745 5.604654,-1.514771 9.126497,-5.377438 3.559713,-3.900537 3.559713,-8.709936 0,-4.052013 -2.272157,-6.475648 -2.272157,-2.423634 -6.627125,-2.423634 -5.074484,0 -16.96544,3.673321 z"
         style="fill:#2a2a2a;fill-opacity:1;stroke-width:6.87016"
         id="path81382"
         inkscape:label="path" /></g></g><metadata
     id="metadata81453"><rdf:RDF><cc:License
         rdf:about="http://creativecommons.org/publicdomain/zero/1.0/"><cc:permits
           rdf:resource="http://creativecommons.org/ns#Reproduction" /><cc:permits
           rdf:resource="http://creativecommons.org/ns#Distribution" /><cc:permits
           rdf:resource="http://creativecommons.org/ns#DerivativeWorks" /></cc:License><cc:Work
         rdf:about=""><cc:license
           rdf:resource="http://creativecommons.org/publicdomain/zero/1.0/" /></cc:Work></rdf:RDF></metadata></svg>
